<svg width="6" height="14" viewBox="0 0 6 14" fill="none" xmlns="http://www.w3.org/2000/svg">
<path d="M4.25006 0.333252C3.91854 0.333252 3.6006 0.464948 3.36618 0.699368C3.13176 0.933789 3.00006 1.25173 3.00006 1.58325C3.00006 1.91477 3.13176 2.23271 3.36618 2.46714C3.6006 2.70156 3.91854 2.83325 4.25006 2.83325C4.58159 2.83325 4.89953 2.70156 5.13395 2.46714C5.36837 2.23271 5.50006 1.91477 5.50006 1.58325C5.50006 1.25173 5.36837 0.933789 5.13395 0.699368C4.89953 0.464948 4.58159 0.333252 4.25006 0.333252ZM3.95007 4.30825C2.9584 4.39159 0.250065 6.54992 0.250065 6.54992C0.0833979 6.67492 0.133398 6.66658 0.266732 6.89992C0.400065 7.12492 0.383398 7.14158 0.541732 7.03325C0.708398 6.92492 0.983398 6.74992 1.44173 6.46658C3.2084 5.33325 1.72507 7.94992 0.966732 12.3583C0.666732 14.5416 2.6334 13.4166 3.14173 13.0833C3.64173 12.7583 4.9834 11.8333 5.11673 11.7416C5.30007 11.6166 5.16673 11.5166 5.02506 11.3083C4.92507 11.1666 4.82506 11.2666 4.82506 11.2666C4.2834 11.6249 3.29173 12.3749 3.1584 11.8999C3.00006 11.4249 4.01673 8.16658 4.57507 5.92492C4.66673 5.39158 4.91673 4.22492 3.95007 4.30825Z" fill="#1B6853"/>
</svg>
