<svg width="20" height="20" viewBox="0 0 20 20" fill="none" xmlns="http://www.w3.org/2000/svg">
<g clip-path="url(#clip0)">
<path d="M19.3013 1.41697C18.4545 0.0249967 16.6395 -0.416947 15.2477 0.429954L12.5588 2.06579L12.3743 1.76233C11.838 0.880952 10.6888 0.601073 9.8073 1.1373C8.92592 1.67358 8.64619 2.82276 9.18231 3.70424L9.5487 4.30641L3.08451 8.26932C2.49048 8.63074 1.5251 9.92496 1.24343 10.313C1.09149 10.5223 1.08019 10.8022 1.21452 11.0231L2.4824 13.1072C2.61679 13.328 2.87073 13.4467 3.12631 13.408C3.60048 13.3362 5.19356 13.074 5.7877 12.7124L12.2517 8.74948L12.6181 9.35165C13.1542 10.233 14.3035 10.5129 15.185 9.97663C16.0664 9.44045 16.3462 8.29122 15.81 7.40973L15.6255 7.10637L18.3143 5.47048C19.7062 4.62374 20.1481 2.80885 19.3013 1.41697ZM5.12107 11.6166L5.08557 8.55324L9.4579 5.86291C9.49447 6.30495 9.63142 6.74536 9.87759 7.15006C10.1238 7.55476 10.452 7.87879 10.8276 8.11452L5.12107 11.6166Z" fill="white"/>
<path d="M2.69426 14.1492C2.601 14.0746 2.4685 14.0745 2.37514 14.149C2.28904 14.2176 0.267578 15.8494 0.267578 17.5751C0.267578 19.0029 1.19981 20 2.53455 20C3.90739 20 4.90383 18.9801 4.90383 17.5751C4.90388 15.9339 2.7845 14.2213 2.69426 14.1492ZM2.84343 19.3578C2.82225 19.3632 2.80102 19.3658 2.78015 19.3658C2.66602 19.3658 2.56191 19.2887 2.53245 19.173C2.49766 19.0363 2.58008 18.8973 2.71661 18.8622C2.76342 18.8499 3.78661 18.5678 3.78646 17.5412C3.78646 17.3999 3.9009 17.2854 4.04219 17.2853C4.18349 17.2853 4.29803 17.3998 4.29803 17.5411C4.29823 18.6852 3.34656 19.2297 2.84343 19.3578Z" fill="white"/>
</g>
<defs>
<clipPath id="clip0">
<rect width="20" height="20" fill="white"/>
</clipPath>
</defs>
</svg>
