<svg width="34" height="39" viewBox="0 0 34 39" fill="none" xmlns="http://www.w3.org/2000/svg">
<g clip-path="url(#clip0)">
<path d="M0.688509 14.6345C0.821664 12.9429 1.20489 11.3464 1.83819 9.84839C2.64037 7.95679 3.83876 6.2334 5.42688 4.6814C7.015 3.12939 8.77849 1.95825 10.7174 1.17432C12.6497 0.393555 14.7445 0 16.9984 0C19.2523 0 21.347 0.393555 23.2826 1.17432C25.2215 1.95825 26.985 3.12622 28.5731 4.6814C30.1612 6.2334 31.3596 7.95679 32.1586 9.85156C32.7951 11.3528 33.1783 12.9524 33.3115 14.6472C33.1101 14.5615 32.899 14.4949 32.6814 14.4441C32.3534 14.3616 32.0124 14.314 31.6584 14.2981C31.509 12.9365 31.181 11.6543 30.6711 10.4482C29.9534 8.75659 28.8719 7.20776 27.4299 5.79541C25.9847 4.38623 24.3998 3.32935 22.6721 2.62793C20.9411 1.92651 19.0509 1.57739 17.0016 1.57739C14.9523 1.57739 13.0622 1.92969 11.3312 2.62793C9.60015 3.32617 8.01528 4.38306 6.57006 5.79541C5.12809 7.20776 4.04661 8.75976 3.32888 10.4482C2.81899 11.6511 2.48773 12.9333 2.34158 14.2949C2.07852 14.3044 1.81546 14.3362 1.55889 14.3838C1.25036 14.4441 0.961314 14.5266 0.688509 14.6345ZM7.71325 30.2688H4.70914V29.3706C4.70914 28.9485 4.67017 28.6819 4.59222 28.5645C4.51753 28.4502 4.38762 28.3962 4.209 28.3962C4.01414 28.3962 3.86799 28.4724 3.76731 28.6279C3.66664 28.7834 3.61792 29.0151 3.61792 29.3325C3.61792 29.7356 3.67313 30.0403 3.7868 30.2498C3.89397 30.4561 4.19925 30.7004 4.70265 30.9924C6.14137 31.8271 7.04747 32.5127 7.42096 33.0491C7.79444 33.5854 7.98281 34.4456 7.98281 35.6389C7.98281 36.5054 7.87563 37.1433 7.67103 37.5527C7.46318 37.9622 7.06371 38.3049 6.46939 38.5842C5.87506 38.8635 5.1833 39.0032 4.39412 39.0032C3.52698 39.0032 2.78976 38.8413 2.1792 38.5208C1.56538 38.2002 1.16267 37.7908 0.977553 37.2988C0.789187 36.8037 0.695004 36.0991 0.695004 35.1882V34.3948H3.69586V35.8706C3.69586 36.3276 3.73808 36.6196 3.82252 36.7498C3.91021 36.8799 4.05636 36.9434 4.2707 36.9434C4.48505 36.9434 4.64744 36.8608 4.75136 36.6958C4.85529 36.5308 4.90725 36.2864 4.90725 35.9626C4.90725 35.2454 4.80657 34.7788 4.60846 34.5566C4.40386 34.3345 3.90047 33.9695 3.09504 33.4553C2.28962 32.9348 1.757 32.5571 1.49393 32.3191C1.23412 32.0842 1.01652 31.7573 0.847645 31.3416C0.675518 30.9258 0.591078 30.3958 0.591078 29.7515C0.591078 28.8215 0.711243 28.1392 0.954819 27.7107C1.1984 27.2791 1.58812 26.9458 2.13048 26.7014C2.67284 26.4602 3.32888 26.3364 4.09858 26.3364C4.93973 26.3364 5.65422 26.4697 6.2453 26.7332C6.83962 26.9998 7.23259 27.3362 7.42096 27.7393C7.61257 28.1392 7.71 28.8247 7.71 29.7896V30.2688H7.71325ZM16.3813 33.7061C16.3813 34.928 16.3521 35.7913 16.2936 36.2959C16.2352 36.8069 16.0501 37.2703 15.7415 37.6892C15.433 38.1082 15.014 38.4319 14.4879 38.6572C13.9585 38.8826 13.3447 38.9968 12.6465 38.9968C11.9807 38.9968 11.3799 38.8889 10.8538 38.6763C10.3211 38.4636 9.89569 38.1462 9.57417 37.7209C9.25265 37.2957 9.05454 36.8291 8.99608 36.3308C8.93763 35.8325 8.90515 34.9534 8.90515 33.7029V31.624C8.90515 30.4021 8.93438 29.5388 8.99608 29.0278C9.05454 28.52 9.23641 28.0566 9.54819 27.6345C9.85672 27.2156 10.2757 26.8918 10.8018 26.6665C11.3312 26.4412 11.945 26.3301 12.6465 26.3301C13.3123 26.3301 13.9098 26.438 14.4392 26.6506C14.9686 26.8633 15.3973 27.1807 15.7188 27.606C16.0403 28.0313 16.2319 28.4946 16.2936 28.9961C16.3521 29.4944 16.3846 30.3704 16.3846 31.624V33.7061H16.3813ZM13.1499 29.7134C13.1499 29.1484 13.1174 28.7866 13.0524 28.6279C12.9907 28.4724 12.8576 28.3931 12.6562 28.3931C12.4873 28.3931 12.3574 28.4565 12.2697 28.5835C12.1788 28.7073 12.1333 29.085 12.1333 29.7134V35.3882C12.1333 36.0928 12.1626 36.5308 12.221 36.6958C12.2827 36.8608 12.4191 36.9434 12.6335 36.9434C12.8543 36.9434 12.994 36.8481 13.0589 36.6609C13.1174 36.4673 13.1499 36.0134 13.1499 35.2993V29.7134ZM24.9779 33.7061C24.9779 34.928 24.9487 35.7913 24.8902 36.2959C24.8285 36.8069 24.6467 37.2703 24.3381 37.6892C24.0264 38.1082 23.6074 38.4319 23.0813 38.6572C22.5552 38.8826 21.9381 38.9968 21.2399 38.9968C20.5741 38.9968 19.9765 38.8889 19.4471 38.6763C18.9145 38.4636 18.4891 38.1462 18.1675 37.7209C17.846 37.2957 17.6512 36.8291 17.5895 36.3308C17.531 35.8325 17.4985 34.9534 17.4985 33.7029V31.624C17.4985 30.4021 17.5278 29.5388 17.5862 29.0278C17.6447 28.52 17.8265 28.0566 18.1383 27.6345C18.4468 27.2156 18.869 26.8918 19.3952 26.6665C19.9213 26.4412 20.5351 26.3301 21.2399 26.3301C21.9056 26.3301 22.5032 26.438 23.0326 26.6506C23.5619 26.8633 23.9906 27.1807 24.3122 27.606C24.6337 28.0313 24.8285 28.4946 24.887 28.9961C24.9455 29.4944 24.9779 30.3704 24.9779 31.624V33.7061ZM21.7432 29.7134C21.7432 29.1484 21.7108 28.7866 21.6458 28.6279C21.5809 28.4724 21.451 28.3931 21.2528 28.3931C21.0807 28.3931 20.9541 28.4565 20.8664 28.5835C20.7754 28.7073 20.73 29.085 20.73 29.7134V35.3882C20.73 36.0928 20.7592 36.5308 20.8209 36.6958C20.8794 36.8608 21.0158 36.9434 21.2334 36.9434C21.4542 36.9434 21.5938 36.8481 21.6556 36.6609C21.714 36.4673 21.7465 36.0134 21.7465 35.2993V29.7134H21.7432ZM33.4024 26.5935V38.7429H30.5704L28.8881 33.2205V38.7429H26.1861V26.5935H28.8881L30.7036 32.0652V26.5935H33.4024ZM5.21578 19.8428H3.0106V18.3987C3.0106 17.9797 2.98787 17.7163 2.93915 17.6116C2.89044 17.51 2.78651 17.4561 2.62413 17.4561C2.44226 17.4561 2.32534 17.5195 2.27987 17.6465C2.23116 17.7734 2.20518 18.0464 2.20518 18.4653V22.3184C2.20518 22.7214 2.23116 22.9849 2.27987 23.1086C2.32859 23.2324 2.43901 23.2927 2.61114 23.2927C2.77677 23.2927 2.88394 23.2324 2.93266 23.1086C2.98462 22.988 3.0106 22.696 3.0106 22.2422V21.2012H5.21578V21.5217C5.21578 22.3787 5.15083 22.988 5.03066 23.3467C4.90725 23.7053 4.6312 24.0195 4.20575 24.2893C3.7803 24.5591 3.25743 24.6956 2.63712 24.6956C1.99083 24.6956 1.45821 24.5813 1.03601 24.3496C0.61706 24.1211 0.341007 23.8037 0.204604 23.4006C0.0682014 22.9976 0 22.3882 0 21.5757V19.1541C0 18.5574 0.0194861 18.1099 0.061706 17.8083C0.103926 17.51 0.227338 17.2212 0.438437 16.9451C0.646289 16.6689 0.932085 16.45 1.30232 16.2913C1.66931 16.1326 2.09476 16.0532 2.57217 16.0532C3.2217 16.0532 3.75757 16.177 4.18302 16.4214C4.60522 16.6689 4.88127 16.9736 5.01767 17.3418C5.15083 17.71 5.21903 18.2812 5.21903 19.0557V19.8428H5.21578ZM11.1396 21.0837C11.1396 21.9185 11.1201 22.5088 11.0811 22.8547C11.0389 23.2007 10.9155 23.5181 10.7044 23.8069C10.4933 24.0925 10.2042 24.3115 9.84698 24.467C9.48648 24.6194 9.06753 24.6987 8.59012 24.6987C8.1387 24.6987 7.72949 24.6257 7.36575 24.4797C7.00201 24.3337 6.71296 24.1179 6.49212 23.8259C6.27452 23.5371 6.14137 23.2197 6.09915 22.8801C6.05693 22.5405 6.03744 21.9407 6.03744 21.0869V19.6714C6.03744 18.8367 6.05693 18.2463 6.0959 17.9004C6.13487 17.5544 6.26153 17.2371 6.47263 16.9514C6.68373 16.6626 6.97278 16.4436 7.33002 16.2913C7.69051 16.1389 8.10622 16.0596 8.58688 16.0596C9.04155 16.0596 9.45076 16.1326 9.81125 16.2786C10.1717 16.4246 10.464 16.6404 10.6849 16.9324C10.9057 17.2212 11.0356 17.5386 11.0778 17.8782C11.1168 18.2178 11.1396 18.8176 11.1396 19.6714V21.0837ZM8.93438 18.3606C8.93438 17.9734 8.91489 17.729 8.86942 17.6211C8.82396 17.5132 8.73627 17.4561 8.59987 17.4561C8.48295 17.4561 8.39851 17.5005 8.3368 17.5862C8.2751 17.6719 8.24262 17.929 8.24262 18.3574V22.2263C8.24262 22.7087 8.26536 23.0071 8.30433 23.1182C8.34655 23.2324 8.43748 23.2864 8.58363 23.2864C8.73627 23.2864 8.8337 23.2229 8.87267 23.0928C8.91164 22.9595 8.93438 22.6516 8.93438 22.1628V18.3606ZM18.8658 16.231V24.521H16.9399V18.9224L16.167 24.521H14.7997L13.9878 19.0525V24.521H12.0587V16.231H14.9134C14.9978 16.7292 15.0855 17.3164 15.1797 17.9924L15.4817 20.103L15.9851 16.231H18.8658ZM22.0485 16.231V24.521H19.8433V16.231H22.0485ZM27.9561 16.231V24.521H26.0204L24.8708 20.7537V24.521H23.0261V16.231H24.8708L26.1114 19.9634V16.231H27.9561ZM34 19.281H31.7948V18.5288C31.7948 18.0559 31.7753 17.7576 31.7331 17.637C31.6876 17.5164 31.587 17.4561 31.4311 17.4561C31.2947 17.4561 31.2005 17.5068 31.1518 17.6116C31.1031 17.7163 31.0771 17.9766 31.0771 18.3987V22.3755C31.0771 22.75 31.0998 22.9944 31.1518 23.1118C31.1972 23.2292 31.2979 23.2864 31.4441 23.2864C31.6065 23.2864 31.7169 23.2197 31.7753 23.0896C31.8338 22.9531 31.863 22.696 31.863 22.3088V21.325H31.4148V20.0649H33.9968V24.5146H32.61L32.4054 23.9211C32.256 24.1782 32.0676 24.3718 31.8403 24.4988C31.6097 24.6257 31.3401 24.6924 31.0284 24.6924C30.6581 24.6924 30.3106 24.6035 29.9891 24.429C29.6676 24.2544 29.4208 24.0354 29.2519 23.7751C29.083 23.5149 28.9791 23.2451 28.9369 22.9563C28.8946 22.6707 28.8719 22.2422 28.8719 21.6741V19.2112C28.8719 18.4177 28.9141 17.8433 29.0018 17.4878C29.0895 17.1292 29.3396 16.7991 29.7553 16.5007C30.1677 16.2024 30.7068 16.05 31.3629 16.05C32.0092 16.05 32.545 16.1802 32.9705 16.4404C33.3959 16.7039 33.6752 17.0085 33.8051 17.3672C33.935 17.7227 34 18.24 34 18.9224V19.281ZM16.9789 4.45288L18.6222 7.22681H17.6836V12.3748H21.5094V11.4575L24.3479 13.0603L21.8602 14.4663H21.5094V13.7458L16.2839 13.749V12.3938H16.2806V7.22681H15.3421L16.9789 4.45288Z" fill="white"/>
</g>
<defs>
<clipPath id="clip0">
<rect width="34" height="39" fill="white"/>
</clipPath>
</defs>
</svg>
