<svg width="23" height="23" viewBox="0 0 23 23" fill="none" xmlns="http://www.w3.org/2000/svg">
<path d="M15.3333 1.91669H7.66667C4.3125 1.91669 2.875 3.83335 2.875 6.70835V16.2917C2.875 19.1667 4.3125 21.0834 7.66667 21.0834H15.3333C18.6875 21.0834 20.125 19.1667 20.125 16.2917V6.70835C20.125 3.83335 18.6875 1.91669 15.3333 1.91669ZM7.66667 11.7396H11.5C11.8929 11.7396 12.2188 12.0654 12.2188 12.4584C12.2188 12.8513 11.8929 13.1771 11.5 13.1771H7.66667C7.27375 13.1771 6.94792 12.8513 6.94792 12.4584C6.94792 12.0654 7.27375 11.7396 7.66667 11.7396ZM15.3333 17.0104H7.66667C7.27375 17.0104 6.94792 16.6846 6.94792 16.2917C6.94792 15.8988 7.27375 15.5729 7.66667 15.5729H15.3333C15.7262 15.5729 16.0521 15.8988 16.0521 16.2917C16.0521 16.6846 15.7262 17.0104 15.3333 17.0104ZM17.7292 8.8646H15.8125C14.3558 8.8646 13.1771 7.68585 13.1771 6.22919V4.31252C13.1771 3.9196 13.5029 3.59377 13.8958 3.59377C14.2887 3.59377 14.6146 3.9196 14.6146 4.31252V6.22919C14.6146 6.89044 15.1512 7.4271 15.8125 7.4271H17.7292C18.1221 7.4271 18.4479 7.75294 18.4479 8.14585C18.4479 8.53877 18.1221 8.8646 17.7292 8.8646Z" fill="#5CAA37"/>
</svg>
