<svg width="23" height="23" viewBox="0 0 23 23" fill="none" xmlns="http://www.w3.org/2000/svg">
<path d="M6.3921 13.4167H3.83335C2.77919 13.4167 1.91669 14.2792 1.91669 15.3334V20.125C1.91669 20.6521 2.34794 21.0834 2.87502 21.0834H6.3921C6.91919 21.0834 7.35044 20.6521 7.35044 20.125V14.375C7.35044 13.8479 6.91919 13.4167 6.3921 13.4167Z" fill="#232323"/>
<path d="M12.7746 9.58331H10.2159C9.16169 9.58331 8.29919 10.4458 8.29919 11.5V20.125C8.29919 20.6521 8.73044 21.0833 9.25753 21.0833H13.7329C14.26 21.0833 14.6913 20.6521 14.6913 20.125V11.5C14.6913 10.4458 13.8384 9.58331 12.7746 9.58331Z" fill="#232323"/>
<path d="M19.1667 16.2917H16.6079C16.0808 16.2917 15.6496 16.7229 15.6496 17.25V20.125C15.6496 20.6521 16.0808 21.0834 16.6079 21.0834H20.125C20.6521 21.0834 21.0833 20.6521 21.0833 20.125V18.2084C21.0833 17.1542 20.2208 16.2917 19.1667 16.2917Z" fill="#232323"/>
<path d="M14.3846 4.64792C14.6817 4.35083 14.7967 3.99625 14.7009 3.68958C14.605 3.38292 14.3079 3.1625 13.8863 3.09542L12.9663 2.94208C12.9279 2.94208 12.8417 2.875 12.8225 2.83667L12.3146 1.82083C11.9313 1.04458 11.0592 1.04458 10.6759 1.82083L10.1679 2.83667C10.1584 2.875 10.0721 2.94208 10.0338 2.94208L9.11377 3.09542C8.69211 3.1625 8.40461 3.38292 8.29919 3.68958C8.20336 3.99625 8.31836 4.35083 8.61544 4.64792L9.32461 5.36667C9.36294 5.39542 9.39169 5.51042 9.38211 5.54875L9.18086 6.43042C9.02752 7.09167 9.27669 7.38875 9.43961 7.50375C9.60252 7.61875 9.95711 7.77208 10.5417 7.42708L11.4042 6.91917C11.4425 6.89042 11.5671 6.89042 11.6054 6.91917L12.4584 7.42708C12.7267 7.59 12.9471 7.63792 13.1196 7.63792C13.3209 7.63792 13.4646 7.56125 13.5509 7.50375C13.7138 7.38875 13.9629 7.09167 13.8096 6.43042L13.6084 5.54875C13.5988 5.50083 13.6275 5.39542 13.6659 5.36667L14.3846 4.64792Z" fill="#232323"/>
</svg>
