<svg width="16" height="16" viewBox="0 0 16 16" fill="none" xmlns="http://www.w3.org/2000/svg">
<path d="M10.794 1.33334H5.20732C2.78065 1.33334 1.33398 2.78001 1.33398 5.20668V10.7867C1.33398 13.22 2.78065 14.6667 5.20732 14.6667H10.7873C13.214 14.6667 14.6606 13.22 14.6606 10.7933V5.20668C14.6673 2.78001 13.2206 1.33334 10.794 1.33334ZM11.1873 6.46668L7.40732 10.2467C7.31398 10.34 7.18732 10.3933 7.05398 10.3933C6.92065 10.3933 6.79398 10.34 6.70065 10.2467L4.81398 8.36001C4.62065 8.16668 4.62065 7.84668 4.81398 7.65334C5.00732 7.46001 5.32732 7.46001 5.52065 7.65334L7.05398 9.18668L10.4806 5.76001C10.674 5.56668 10.994 5.56668 11.1873 5.76001C11.3806 5.95334 11.3806 6.26668 11.1873 6.46668Z" fill="#232323"/>
</svg>
